<mxfile host="app.diagrams.net" modified="2024-02-22T20:37:07.873Z" agent="Mozilla/5.0 (Macintosh; Intel Mac OS X 10_15_7) AppleWebKit/537.36 (KHTML, like Gecko) Chrome/121.0.0.0 Safari/537.36" version="23.1.6" etag="hBuv19Bl_rzL8UHGEmCD" type="github">
  <diagram name="Page-1" id="i13h3aVCmIIsZfuzfq5u">
    <mxGraphModel>
      <root>
        <mxCell id="0" />
        <mxCell id="1" parent="0" />
      </root>
    </mxGraphModel>
  </diagram>
</mxfile>
